<svg width="108" height="88" xmlns="http://www.w3.org/2000/svg" xmlns:xlink="http://www.w3.org/1999/xlink"><defs><path d="M43.705 53.366c-.418 0-1.045.208-1.464.415L24.466 69.355V54.82c0-1.039-.627-1.87-1.672-2.077C12.129 50.667 4.182 40.492 4.182 28.656c0-13.498 10.038-24.503 22.376-24.503h24.884c12.338 0 22.376 11.005 22.376 24.503 0 13.497-10.038 24.502-22.376 24.502l-7.737.208zM51.442 0H26.558C11.92 0 0 12.874 0 28.656c0 13.29 8.365 24.71 20.284 27.825v17.442c0 .831.418 1.454 1.255 1.87.209.207.627.207.836.207.419 0 1.046-.208 1.464-.415l20.703-18.066h7.11C66.08 57.52 78 44.645 78 28.656 78 12.874 66.08 0 51.442 0z" id="a"/></defs><g transform="translate(4 4)" fill="none" fill-rule="evenodd"><ellipse fill="#FFF" cx="54" cy="32.5" rx="17" ry="17.5"/><path d="M57 23c0-1.2-.846-2-2.121-2H17.12c-1.27 0-2.121.8-2.121 2s.85 2 2.121 2h37.76c1.274 0 2.12-.8 2.12-2m-22.037 8H17.037c-1.22 0-2.037.8-2.037 2s.817 2 2.037 2h17.926C36.187 35 37 34.2 37 33s-1.019-2-2.037-2" fill="#02B605"/><use fill="#555" xlink:href="#a"/><path stroke="#FFF" stroke-width="4" d="M43.672 51.366l7.77-.208c11.187 0 20.376-10.066 20.376-22.502 0-12.436-9.19-22.503-20.376-22.503H26.558C15.37 6.153 6.182 16.22 6.182 28.656c0 10.864 7.259 20.229 17.001 22.125 1.98.394 3.283 2.042 3.283 4.039v10.124L41.12 52.106l.233-.116c.712-.353 1.586-.616 2.32-.624zm1.62 8.153L24.96 77.261l-.231.115c-.723.359-1.613.624-2.354.624a4.1 4.1 0 0 1-.744-.053 2.745 2.745 0 0 1-1.2-.479c-1.36-.756-2.147-2.006-2.147-3.545V57.98C6.251 54.096-2 42.259-2 28.656-2 11.798 10.784-2 26.558-2h24.884C67.216-2 80 11.798 80 28.656c0 16.994-12.717 30.863-28.349 30.863h-6.36z"/><path d="M83.646 30.208c-1.246 0-2.077.83-2.077 2.077 0 1.246.83 2.077 2.077 2.077 8.307 0 15.161 7.477 15.161 16.823 0 9.138-6.438 16.615-14.746 16.823-1.038 0-2.077 1.039-2.077 2.077v6.646l-7.684-8.1c-.416-.415-1.039-.623-1.454-.623h-6.644c-4.78 0-9.14-2.492-12.049-6.646-.623-1.039-1.869-1.246-2.907-.623-1.039.623-1.246 1.87-.621 2.908 3.528 5.4 9.552 8.515 15.577 8.515h5.813l10.802 11.215c.413.416 1.039.623 1.452.623.208 0 .625 0 .83-.207.833-.416 1.247-1.039 1.247-1.87v-9.969c9.554-1.454 16.823-10.177 16.823-20.769 0-11.423-8.723-20.977-19.523-20.977" fill="#555"/></g></svg>